<svg width="18" height="20" viewBox="0 0 18 20" fill="none" xmlns="http://www.w3.org/2000/svg">
<path d="M11.1806 15.5556C10.5 15.5556 9.92477 15.3206 9.45486 14.8507C8.98495 14.3808 8.75 13.8056 8.75 13.125C8.75 12.4445 8.98495 11.8692 9.45486 11.3993C9.92477 10.9294 10.5 10.6945 11.1806 10.6945C11.8611 10.6945 12.4363 10.9294 12.9062 11.3993C13.3762 11.8692 13.6111 12.4445 13.6111 13.125C13.6111 13.8056 13.3762 14.3808 12.9062 14.8507C12.4363 15.3206 11.8611 15.5556 11.1806 15.5556ZM1.94444 19.4445C1.40972 19.4445 0.951968 19.2541 0.571181 18.8733C0.190394 18.4925 0 18.0347 0 17.5V3.8889C0 3.35418 0.190394 2.89643 0.571181 2.51564C0.951968 2.13485 1.40972 1.94446 1.94444 1.94446H2.91667V1.33514e-05H4.86111V1.94446H12.6389V1.33514e-05H14.5833V1.94446H15.5556C16.0903 1.94446 16.548 2.13485 16.9288 2.51564C17.3096 2.89643 17.5 3.35418 17.5 3.8889V17.5C17.5 18.0347 17.3096 18.4925 16.9288 18.8733C16.548 19.2541 16.0903 19.4445 15.5556 19.4445H1.94444ZM1.94444 17.5H15.5556V7.77779H1.94444V17.5ZM1.94444 5.83335H15.5556V3.8889H1.94444V5.83335Z" fill="#138301"/>
</svg>
